<svg version="1.1" id="Layer_1" xmlns="http://www.w3.org/2000/svg" xmlns:xlink="http://www.w3.org/1999/xlink" x="0px" y="0px"
	 width="100%" viewBox="0 0 500 500" enable-background="new 0 0 500 500" xml:space="preserve">
<path fill="#000000" opacity="1.000000" stroke="none" 
	d="
M263.000000,501.000000 
	C175.333359,501.000000 88.166710,501.000000 1.000047,501.000000 
	C1.000031,334.333405 1.000031,167.666794 1.000016,1.000136 
	C167.666565,1.000091 334.333130,1.000091 500.999756,1.000045 
	C500.999847,167.666519 500.999847,334.333038 500.999939,500.999786 
	C421.833344,501.000000 342.666656,501.000000 263.000000,501.000000 
M212.877808,229.454819 
	C212.549561,229.370758 212.221329,229.286713 211.483215,229.061874 
	C211.483215,229.061874 211.054855,228.996124 210.790970,228.381119 
	C209.840240,227.989182 208.889511,227.597244 207.523254,227.063385 
	C207.523254,227.063385 207.091949,226.981125 206.908691,226.462204 
	C206.586761,226.383255 206.264816,226.304321 205.042465,226.113693 
	C201.343719,226.387909 197.644974,226.662125 193.299942,227.021744 
	C192.807190,227.363129 192.314453,227.704514 191.105499,228.050980 
	C189.511642,228.762482 187.581848,229.116653 186.380737,230.245895 
	C180.444733,235.826889 178.333191,242.706726 180.044235,250.735229 
	C181.421906,257.199493 188.299225,264.233337 194.753769,264.963989 
	C208.440689,268.744141 219.960770,261.008820 221.769241,248.604004 
	C221.682907,243.214035 221.541428,237.841995 216.844254,233.469452 
	C216.663605,233.193939 216.409393,233.039520 215.922089,232.481491 
	C215.614304,232.311920 215.306503,232.142349 214.991882,232.009979 
	C214.991882,232.009979 215.028305,231.999832 214.886139,231.487427 
	C214.589081,231.316971 214.292023,231.146515 213.988251,231.010132 
	C213.988251,231.010132 214.022598,231.005127 213.903870,230.484009 
	C213.606293,230.313202 213.308701,230.142380 212.997910,230.002243 
	C212.997910,230.002243 213.027130,229.986130 212.877808,229.454819 
M292.089844,86.523262 
	C292.395264,86.698029 292.700714,86.872795 293.005493,86.998650 
	C293.005493,86.998650 292.956940,87.004326 293.017731,87.756096 
	C294.594360,91.522926 296.170990,95.289757 297.895752,99.410484 
	C300.387054,94.797211 301.800262,89.925880 304.981201,86.934097 
	C308.063721,84.034897 312.963440,83.067741 318.273315,80.717155 
	C313.332520,79.201889 309.668671,78.078255 306.000336,77.004852 
	C306.000336,77.004852 306.050415,76.998360 305.888062,76.485291 
	C305.589905,76.304085 305.291779,76.122887 304.992004,75.998100 
	C304.992004,75.998100 305.048340,75.995399 304.848175,75.390373 
	C303.903839,74.555176 302.959473,73.719986 301.956238,72.510605 
	C301.956238,72.510605 301.828522,72.153984 301.928894,71.558235 
	C301.618347,71.329964 301.307800,71.101692 300.928558,70.431274 
	C300.928558,70.431274 300.782623,70.008286 300.866760,69.496437 
	C300.588135,69.314774 300.309540,69.133102 299.999329,68.999039 
	C299.999329,68.999039 300.044891,68.966331 300.026489,68.149742 
	C299.520599,66.060593 299.014740,63.971447 298.508850,61.882298 
	C294.949738,70.385399 292.441040,78.513741 281.404510,79.506439 
	C283.812408,83.715302 287.701019,83.877838 291.003967,84.993271 
	C291.003967,84.993271 290.955688,84.988358 291.088806,85.520584 
	C291.394592,85.696800 291.700409,85.873016 292.004822,85.995407 
	C292.004822,85.995407 291.950989,85.994232 292.089844,86.523262 
M297.929321,128.459885 
	C297.623810,128.287628 297.318268,128.115372 297.001312,127.998466 
	C297.001312,127.998466 297.047699,127.966179 296.835571,127.342377 
	C295.893921,126.883339 294.952271,126.424294 293.996857,126.003716 
	C293.996857,126.003716 294.033905,125.986671 293.790283,125.359558 
	C292.196106,124.227234 290.601898,123.094910 288.994171,122.003876 
	C288.994171,122.003876 289.035095,121.989395 288.789490,121.336555 
	C285.818665,119.629128 282.847839,117.921700 279.477783,116.093338 
	C279.477783,116.093338 279.070984,116.001045 278.834381,115.347908 
	C277.516205,114.630524 276.198059,113.913132 274.474976,113.069290 
	C274.474976,113.069290 274.059204,112.985237 273.915894,112.466728 
	C273.620148,112.285385 273.324371,112.104034 272.710876,111.316566 
	C271.817993,111.188126 270.925079,111.059677 270.004211,110.989075 
	C270.004211,110.989075 270.063873,110.965202 269.842072,110.329147 
	C268.881775,109.960815 267.921509,109.592476 266.542938,109.067184 
	C266.542938,109.067184 266.103516,108.986748 265.917999,108.451653 
	C265.585602,108.367249 265.253174,108.282845 264.508026,108.075737 
	C264.508026,108.075737 264.082916,108.007362 263.777344,107.349876 
	C261.161652,106.298218 258.545959,105.246552 255.511475,104.062119 
	C255.511475,104.062119 255.077713,103.992386 254.810684,103.402710 
	C254.194931,103.340858 253.579178,103.279007 252.531265,103.074112 
	C252.531265,103.074112 252.082108,103.000015 251.827454,102.404816 
	C251.217026,102.337608 250.606583,102.270401 249.510117,102.073685 
	C249.345169,102.043617 249.180222,102.013557 248.663803,101.338837 
	C246.785660,100.874977 244.907532,100.411110 243.001801,99.998932 
	C243.001801,99.998932 243.050232,99.965919 242.670746,99.300888 
	C240.444489,98.948853 238.218231,98.596817 235.507385,98.093895 
	C235.340973,98.063408 235.174561,98.032921 234.648239,97.313606 
	C232.068985,96.939217 229.489731,96.564827 226.553925,96.047913 
	C226.553925,96.047913 226.174606,95.988258 225.754929,95.243546 
	C222.352341,94.840378 218.955246,94.155891 215.546066,94.089149 
	C206.872162,93.919365 198.192429,93.969902 189.515762,94.033150 
	C170.493546,94.171799 152.689270,99.053566 135.285751,108.245491 
	C132.503769,109.432610 129.721802,110.619728 126.324699,112.085037 
	C125.177795,113.053635 124.030891,114.022232 122.462708,115.088318 
	C122.462708,115.088318 122.050262,115.218155 121.512154,115.114731 
	C121.318573,115.406754 121.125000,115.698769 120.475418,116.136505 
	C120.185158,116.322937 120.024155,116.587914 119.332367,116.994736 
	C118.547760,117.660568 117.763145,118.326401 117.001045,119.003860 
	C117.001045,119.003860 116.993767,118.979935 116.268982,118.998734 
	C113.182381,121.336555 110.095772,123.674377 107.000305,126.000305 
	C107.000305,126.000305 107.011627,126.009949 106.347191,126.055969 
	C105.220146,127.008003 104.093102,127.960037 102.327698,129.172424 
	C97.613777,133.552246 92.713425,137.752335 88.254349,142.377823 
	C85.483582,145.251999 83.381317,148.770615 81.009438,152.007965 
	C81.009438,152.007965 81.005432,151.976776 80.478615,152.099564 
	C80.310669,152.403046 80.142715,152.706528 80.011971,153.013596 
	C80.011971,153.013596 80.003853,152.977127 79.356560,153.224960 
	C74.541351,161.134186 69.726143,169.043396 64.978424,176.989059 
	C64.978424,176.989059 64.943123,176.920959 64.254822,177.149826 
	C55.822701,192.769623 51.127872,209.415939 48.782040,227.048615 
	C46.850483,241.567352 47.669395,255.846802 49.138432,270.203674 
	C49.380844,272.572784 50.977856,274.803284 52.007446,277.912781 
	C52.728607,281.289673 53.449768,284.666534 54.016769,288.832031 
	C57.633053,298.029938 61.238586,307.232056 64.871788,316.423279 
	C66.050949,319.406311 68.398392,321.711365 67.164421,325.718292 
	C63.243782,338.449219 59.878689,351.352509 56.366390,364.207581 
	C53.623413,374.246948 50.927143,384.299927 48.335556,394.379120 
	C47.759998,396.617584 47.446598,399.352753 51.314610,398.274048 
	C66.906548,393.925903 82.474213,389.490662 98.851219,384.978882 
	C106.365997,383.062927 113.849724,381.006866 121.417381,379.329498 
	C123.309074,378.910217 125.856674,379.078400 127.447586,380.049774 
	C139.944183,387.679718 153.749405,391.365601 168.274857,394.749023 
	C176.741837,396.171204 185.182281,398.539581 193.682480,398.778137 
	C204.513885,399.082092 215.406006,397.806915 226.242844,396.874359 
	C228.593002,396.672119 230.819656,395.034546 233.916245,393.994110 
	C241.965744,391.595947 250.015259,389.197784 258.803040,386.957001 
	C279.954437,379.160492 297.437103,365.909515 313.185486,350.152313 
	C313.922150,349.415222 313.975159,347.173004 313.413666,346.137726 
	C312.364990,344.204254 310.630371,342.642792 309.066376,340.210297 
	C306.725098,336.805634 304.383820,333.400940 301.953949,329.565765 
	C301.953949,329.565765 301.809784,329.150543 301.983276,328.378510 
	C300.111511,323.294128 298.239746,318.209717 295.993439,312.108002 
	C293.052246,316.455261 290.500946,320.226227 288.004608,324.008728 
	C288.004608,324.008728 287.994629,323.953461 287.354401,324.174194 
	C284.217194,327.429626 281.079987,330.685089 277.227417,334.011475 
	C274.479248,336.311005 271.731079,338.610504 268.338715,341.198975 
	C263.047150,344.217499 257.974731,347.745819 252.413254,350.136353 
	C243.823654,353.828491 234.963409,356.933716 226.087357,359.896545 
	C222.281357,361.167023 218.147476,361.455261 213.216141,361.967285 
	C204.470551,361.950378 195.724945,361.933441 186.576859,361.369720 
	C184.758911,361.562897 182.940948,361.756042 180.837433,361.296661 
	C178.214233,360.937286 175.591019,360.577881 172.535431,360.068024 
	C172.535431,360.068024 172.085281,359.984497 171.915833,359.468964 
	C171.611816,359.296021 171.307785,359.123077 170.990784,358.998627 
	C170.990784,358.998627 171.037628,358.980499 170.896454,358.489655 
	C170.584717,358.655426 170.272980,358.821167 169.331879,359.044586 
	C168.911407,359.022552 168.490952,359.000519 167.862839,358.439728 
	C167.333176,358.396332 166.803528,358.352905 166.021179,358.107178 
	C165.702347,358.052612 165.382126,358.010498 164.712646,357.328796 
	C163.194351,356.760101 161.625290,356.298218 160.166306,355.604736 
	C152.770172,352.088989 145.402603,348.513123 137.996689,344.997650 
	C137.996689,344.997650 138.042496,344.982025 137.899567,344.426147 
	C137.558380,344.349731 137.217194,344.273315 136.493210,344.076416 
	C136.493210,344.076416 136.097977,344.006714 135.814728,343.324768 
	C132.376450,342.290710 128.656845,339.861176 125.553154,340.486908 
	C116.588531,342.294128 107.871971,345.331879 99.034119,347.951843 
	C99.034119,347.951843 99.103676,347.952972 99.083687,347.169373 
	C101.401268,338.546631 103.824821,329.949951 105.958740,321.281982 
	C106.465096,319.225159 106.737129,316.561371 105.859695,314.804779 
	C101.167152,305.410797 96.076218,296.215759 90.982323,286.177521 
	C90.297989,283.674622 89.717163,281.137909 88.912811,278.674194 
	C82.900024,260.257172 82.206116,241.298798 86.395721,222.740875 
	C93.557533,191.017517 110.577202,165.485321 138.519348,147.926743 
	C143.960983,144.507263 149.554535,141.329514 155.014206,138.021820 
	C155.014206,138.021820 155.031281,138.086014 155.832138,138.017410 
	C156.953033,137.823685 158.169373,137.847366 159.180420,137.403458 
	C173.049591,131.314072 187.662399,129.074768 202.673050,129.075989 
	C208.103851,129.076416 213.534637,129.560745 219.682266,130.143509 
	C229.766708,133.125748 239.851151,136.107986 250.215530,139.725922 
	C257.475616,144.161209 264.735718,148.596512 272.006927,152.993332 
	C272.006927,152.993332 271.968475,153.004440 272.202087,153.638077 
	C277.791931,158.776825 283.381805,163.915588 288.997406,169.001770 
	C288.997406,169.001770 288.945526,169.028946 289.120850,169.613510 
	C289.752167,170.113419 290.383484,170.613312 291.070160,171.670807 
	C291.336609,172.103836 291.603058,172.536850 292.036987,173.514145 
	C292.352814,173.696991 292.668610,173.879822 292.984955,174.001480 
	C292.984955,174.001480 292.938416,174.041214 292.977356,174.762634 
	C305.514832,191.083893 312.510712,209.889130 316.417480,230.125961 
	C324.952942,223.233246 332.533966,217.111252 340.526825,210.920700 
	C340.526825,210.920700 340.924042,210.792267 341.476807,210.893570 
	C341.686310,210.599579 341.895782,210.305588 342.492279,209.939514 
	C342.492279,209.939514 342.862305,209.805222 343.539886,209.964600 
	C344.068115,209.635345 344.596313,209.306076 345.446472,208.952560 
	C345.446472,208.952560 345.748810,208.839401 346.600830,209.038132 
	C349.581055,204.840683 346.871338,201.454407 345.004333,198.001953 
	C345.004333,198.001953 345.059998,197.985199 345.005493,197.178940 
	C342.010498,190.103104 339.015503,183.027267 336.001068,176.002319 
	C336.001068,176.002319 336.052795,175.985306 335.986542,175.252625 
	C333.005585,170.482681 330.024628,165.712753 327.009888,161.001587 
	C327.009888,161.001587 327.065399,160.962509 327.013580,160.253815 
	C325.361633,158.145004 323.709717,156.036179 322.018555,153.996765 
	C322.018555,153.996765 322.084290,153.951584 322.043335,153.240875 
	C319.362793,150.226944 316.682220,147.212997 313.397583,143.906876 
	C312.197357,142.594620 310.997162,141.282364 309.738617,139.332062 
	C308.179016,137.865646 306.619385,136.399216 305.000519,134.998779 
	C305.000519,134.998779 305.066681,134.939896 304.859741,134.296692 
	C302.911377,132.845886 300.963043,131.395081 298.997803,130.001968 
	C298.997803,130.001968 299.057800,129.998199 298.927460,129.464828 
	C298.621704,129.287979 298.315918,129.111115 298.003265,128.997772 
	C298.003265,128.997772 298.066467,128.988525 297.929321,128.459885 
M374.998627,156.015808 
	C374.998627,156.015808 374.938629,156.009033 375.006836,156.714905 
	C375.324829,157.507660 375.642822,158.300430 376.023865,159.478485 
	C376.023865,159.478485 376.184662,159.834213 376.034454,160.714218 
	C376.457977,163.749176 376.881500,166.784149 377.305054,169.819107 
	C378.010223,169.773636 378.715424,169.728149 379.420624,169.682678 
	C379.632721,166.812225 379.844818,163.941772 380.006073,161.034897 
	C380.006073,161.034897 380.064331,161.051437 380.705750,160.773804 
	C380.839478,159.863571 380.973236,158.953339 381.768677,157.646774 
	C382.374359,150.428070 392.723999,138.920181 400.128876,136.945557 
	C403.763977,135.976196 407.278961,134.556427 410.848328,133.340500 
	C392.302307,128.562698 381.223969,118.110886 378.496033,98.904167 
	C375.442810,107.066452 373.755035,116.036911 366.893890,121.265717 
	C360.337830,126.262001 352.442169,129.500488 345.277527,133.433578 
	C356.763763,136.511810 367.824677,141.931030 373.989960,154.708359 
	C374.308716,155.154205 374.627472,155.600052 374.998627,156.015808 
M440.003387,240.998306 
	C440.003387,240.998306 440.070709,240.971741 439.991119,240.270782 
	C437.992828,238.471634 435.994568,236.672485 433.898621,234.431808 
	C433.727509,234.144409 433.474792,234.001923 432.866638,233.378387 
	C431.584320,232.562927 430.302002,231.747467 428.999023,230.995255 
	C428.999023,230.995255 429.062653,230.976089 428.811127,230.336075 
	C426.554779,228.868820 424.298462,227.401566 421.998260,225.996368 
	C421.998260,225.996368 422.059113,225.953903 421.789032,225.319321 
	C420.532135,224.859772 419.275238,224.400238 417.998322,223.997299 
	C417.998322,223.997299 418.052399,223.972229 417.772430,223.303726 
	C411.988373,221.129578 406.365479,218.191513 400.388733,216.930466 
	C385.012939,213.686234 369.779663,213.562866 354.779510,219.873108 
	C336.976532,227.362442 323.658813,239.786362 315.278870,256.690002 
	C306.694000,274.007050 305.205353,292.570221 310.769836,311.447144 
	C314.386810,323.717377 320.141327,334.585449 330.000000,343.000000 
	C330.000000,343.000000 329.963318,343.037933 330.206421,343.693756 
	C337.525482,352.464874 347.310791,357.602112 357.542755,361.967285 
	C368.109894,366.475433 379.338959,366.330078 390.527374,365.971924 
	C399.912323,365.671570 408.486877,362.359863 416.971130,358.643982 
	C419.216583,357.660522 422.103546,356.717346 424.298370,357.287140 
	C434.292053,359.881561 444.136078,363.049103 454.056366,365.933319 
	C455.337982,366.305939 457.542938,366.795227 457.937744,366.242676 
	C458.769623,365.078430 459.238434,363.119202 458.887360,361.731201 
	C456.388489,351.850433 453.433228,342.080933 451.119965,332.160187 
	C450.494354,329.477173 450.744110,325.954163 452.009186,323.568024 
	C461.140381,306.345184 460.901154,288.214874 456.737854,270.082458 
	C454.706421,261.235077 451.039276,252.522003 444.005127,246.002060 
	C444.005127,246.002060 444.065735,245.975174 443.982788,245.295105 
	C442.666748,243.841110 441.350739,242.387115 440.003387,240.998306 
M429.935760,183.449203 
	C429.629547,183.268814 429.323303,183.088409 429.019745,182.976013 
	C429.019745,182.976013 429.085999,182.960419 429.031067,182.201218 
	C427.874359,179.388885 426.717682,176.576553 425.561005,173.764206 
	C425.111664,173.819656 424.662323,173.875092 424.213013,173.930527 
	C423.195618,177.007370 422.178223,180.084213 420.818848,183.741028 
	C419.255005,184.942230 417.691193,186.143433 415.928375,187.497482 
	C417.496002,188.906876 418.693390,189.983398 420.084412,191.559967 
	C420.385773,191.734024 420.687134,191.908096 420.991608,192.016113 
	C420.991608,192.016113 420.926727,192.028824 421.002533,192.774933 
	C422.346405,195.820297 423.690277,198.865646 425.136139,202.142105 
	C427.300598,198.069489 429.174164,194.544281 430.998474,191.000046 
	C430.998474,191.000046 431.019226,191.048569 431.744232,190.982101 
	C433.763733,189.948792 435.783234,188.915466 437.938690,187.812592 
	C434.935638,186.337097 432.492004,185.136475 430.010956,183.989075 
	C430.010956,183.989075 430.075592,183.981735 429.935760,183.449203 
M127.806931,264.964233 
	C130.540131,265.249390 133.273331,265.534546 136.656647,266.155701 
	C146.342209,267.302734 156.116989,255.196381 155.165085,244.398453 
	C153.680206,227.554688 133.794861,219.979019 121.409172,229.297150 
	C115.298508,233.894409 112.281616,240.548111 113.297440,247.752808 
	C114.404076,255.601669 117.877106,262.796661 127.806931,264.964233 
M284.877075,234.581375 
	C284.583038,234.455063 284.289001,234.328751 283.369141,233.865906 
	C277.086945,224.656769 267.839172,223.269974 258.107880,227.156693 
	C249.482925,230.601517 245.535477,238.500626 247.117554,250.077560 
	C248.919815,263.265839 263.578888,269.736420 272.798889,265.959808 
	C280.709869,264.482086 285.229675,259.069153 287.797028,252.075165 
	C289.890564,246.372009 289.129395,240.687469 284.922852,235.465805 
	C284.922852,235.465805 284.789520,235.118042 284.877075,234.581375 
z"/>
<path fill="#1BA9E2" opacity="1.000000" stroke="none" 
	d="
M345.748840,208.839401 
	C345.748810,208.839401 345.446472,208.952560 345.032715,208.941071 
	C344.450195,208.929459 344.281433,208.929367 343.976624,208.838867 
	C343.502991,208.636337 343.218811,208.722687 342.953400,209.206406 
	C342.918671,209.405319 342.862305,209.805222 342.862305,209.805222 
	C342.862305,209.805222 342.492279,209.939514 342.075073,210.061172 
	C341.374725,210.339569 341.130096,210.542709 340.924042,210.792267 
	C340.924042,210.792267 340.526825,210.920700 339.939148,210.970215 
	C335.395966,213.365829 331.364868,215.595276 327.508270,218.094025 
	C324.275574,220.188538 321.246552,222.597382 317.829773,225.083572 
	C317.282074,223.557175 316.964447,222.957382 316.853607,222.321533 
	C314.062592,206.311813 307.216949,192.016022 298.197998,178.691849 
	C296.927490,176.814911 294.714935,175.575653 292.938416,174.041214 
	C292.938416,174.041214 292.984955,174.001480 292.860626,173.793549 
	C292.447357,173.380386 292.158447,173.175125 291.869507,172.969879 
	C291.603058,172.536850 291.336609,172.103836 291.172180,171.150055 
	C290.497986,170.095856 289.721771,169.562393 288.945526,169.028946 
	C288.945526,169.028946 288.997406,169.001770 288.984680,168.664886 
	C284.731354,163.545670 280.586060,158.671982 276.166779,154.060913 
	C275.320831,153.178284 273.395721,153.329941 271.968475,153.004440 
	C271.968475,153.004440 272.006927,152.993332 271.980347,152.657776 
	C265.718231,146.074692 258.978302,140.666534 249.935593,139.090240 
	C239.851151,136.107986 229.766708,133.125748 219.154694,129.652832 
	C213.966431,128.462936 209.318863,127.279335 204.642654,127.152466 
	C188.630020,126.718018 173.155792,129.821854 158.150604,135.287323 
	C156.932632,135.730972 156.062851,137.130600 155.031281,138.086014 
	C155.031281,138.086014 155.014206,138.021820 154.647644,138.015533 
	C149.919113,139.533035 144.877426,140.137207 141.328232,142.760590 
	C132.273773,149.453156 123.261139,156.427246 115.349640,164.398224 
	C93.393837,186.519089 83.033257,213.791992 82.128960,244.726257 
	C81.975563,249.973541 82.620880,255.346054 83.668755,260.503967 
	C85.475334,269.396393 87.887810,278.165680 90.104958,287.352417 
	C93.610703,294.876648 96.608719,302.300598 100.639084,309.113861 
	C104.190414,315.117340 105.131416,320.761444 101.685562,326.944305 
	C98.431480,326.298035 95.181366,321.744141 93.362328,327.750549 
	C93.716919,329.412506 94.295448,331.784698 93.386032,332.739166 
	C90.171638,336.112854 86.309151,338.858002 82.952568,342.110016 
	C78.759697,346.172272 74.893852,350.571564 70.715660,354.649994 
	C69.933365,355.413605 68.361160,355.480255 67.124641,355.629303 
	C66.207161,355.739868 64.649368,355.079590 64.419212,355.435944 
	C63.886951,356.259979 63.459606,357.951965 63.920822,358.482452 
	C66.231834,361.140503 68.842697,363.537872 71.348167,366.026855 
	C71.744492,365.652924 72.140816,365.278992 72.537140,364.905060 
	C71.843483,362.901123 71.149818,360.897217 70.176361,358.084991 
	C72.707497,359.336243 74.236160,360.091949 76.449249,361.185974 
	C75.994240,358.910675 75.700554,357.442078 75.298645,355.432312 
	C79.999954,356.302429 83.074509,355.923401 85.963486,351.322571 
	C87.552780,348.791534 91.563698,344.007477 97.098244,346.279236 
	C97.829613,347.034729 98.466644,347.493866 99.103668,347.952972 
	C99.103676,347.952972 99.034119,347.951843 99.040665,348.215942 
	C99.972794,348.696014 100.941032,349.209015 101.817482,349.083099 
	C113.251427,347.440582 123.774963,339.701843 136.097977,344.006714 
	C136.097977,344.006714 136.493210,344.076416 136.850006,344.309631 
	C137.447815,344.760742 137.726379,344.907135 138.042496,344.982025 
	C138.042496,344.982025 137.996689,344.997650 138.074341,345.320374 
	C146.156342,351.860626 154.745743,356.802246 165.060516,357.980835 
	C165.382126,358.010498 165.702347,358.052612 166.587311,358.404602 
	C167.459137,358.794189 167.764801,358.886353 168.070480,358.978516 
	C168.490952,359.000519 168.911407,359.022552 169.915771,359.023315 
	C170.678970,358.994873 170.858292,358.987701 171.037628,358.980499 
	C171.037628,358.980499 170.990784,358.998627 171.130829,359.191772 
	C171.542358,359.584808 171.813812,359.784637 172.085281,359.984497 
	C172.085281,359.984497 172.535431,360.068024 172.931580,360.467529 
	C175.926147,361.227753 178.524567,361.588501 181.123001,361.949219 
	C182.940948,361.756042 184.758911,361.562897 187.098450,361.918701 
	C196.467545,362.375061 205.315063,362.282410 214.162567,362.189789 
	C218.147476,361.455261 222.281357,361.167023 226.087357,359.896545 
	C234.963409,356.933716 243.823654,353.828491 252.413254,350.136353 
	C257.974731,347.745819 263.047150,344.217499 269.008698,341.064758 
	C270.784515,340.595856 271.890350,340.261169 273.255249,340.195587 
	C281.299438,344.207550 287.319916,343.026245 288.523407,337.031036 
	C289.163635,333.841675 288.151520,330.320648 287.896057,326.574799 
	C287.936157,325.451355 287.965393,324.702393 287.994629,323.953461 
	C287.994629,323.953461 288.004608,324.008728 288.304871,323.922333 
	C290.747528,322.115723 292.889893,320.395508 295.570129,318.243408 
	C296.509705,320.164215 297.245331,321.905457 298.185364,323.528290 
	C299.301697,325.455566 300.593842,327.280975 301.809784,329.150543 
	C301.809784,329.150543 301.953949,329.565765 301.996216,330.162048 
	C304.002533,334.186096 305.966583,337.613831 308.018616,341.383911 
	C311.825409,348.395569 311.550140,349.515381 305.450745,354.430145 
	C303.524139,355.982574 301.991119,358.060974 299.971191,359.453705 
	C290.228851,366.171021 280.424622,372.801331 270.551025,379.324280 
	C266.507538,381.995605 262.233795,384.318329 258.064758,386.799622 
	C250.015259,389.197784 241.965744,391.595947 233.057190,394.010956 
	C229.562744,394.251862 226.897812,394.298035 224.297028,394.730225 
	C211.975739,396.777771 199.667419,398.043884 187.172806,396.090637 
	C180.805710,395.095306 174.342392,394.715637 167.922562,394.057678 
	C153.749405,391.365601 139.944183,387.679718 127.447586,380.049774 
	C125.856674,379.078400 123.309074,378.910217 121.417381,379.329498 
	C113.849724,381.006866 106.365997,383.062927 98.349350,384.762817 
	C97.110466,384.377625 96.294670,383.912018 95.648239,384.083771 
	C86.188019,386.597870 76.752388,389.204346 67.306580,391.772919 
	C62.139297,393.178070 56.963898,394.553345 50.180157,396.374969 
	C52.451962,389.501953 54.190899,384.241089 56.318264,378.982330 
	C62.955189,377.744659 64.857552,374.854797 62.941826,369.027954 
	C62.240936,366.896118 60.932442,364.964020 59.908470,362.528198 
	C62.786652,351.047485 65.384377,339.897797 68.655975,328.949463 
	C70.064003,324.237518 69.546906,320.304871 67.556229,316.035583 
	C63.917843,308.232483 60.656246,300.254486 57.118397,292.403076 
	C56.408268,290.827118 55.167202,289.490448 54.170929,288.043427 
	C53.449768,284.666534 52.728607,281.289673 51.997032,277.038269 
	C51.317692,263.769012 50.104530,251.371292 50.172752,238.980637 
	C50.217621,230.831909 51.276047,222.470596 53.376209,214.603760 
	C56.343674,203.488174 60.734261,192.755341 64.403175,181.820877 
	C64.913963,180.298569 64.779099,178.559616 64.943115,176.920959 
	C64.943123,176.920959 64.978424,176.989059 65.295479,176.910339 
	C68.867126,171.934326 72.240433,167.110413 75.330849,162.111618 
	C77.123459,159.212036 78.461334,156.031326 80.003845,152.977127 
	C80.003853,152.977127 80.011971,153.013596 80.213242,152.892181 
	C80.611481,152.506104 80.808456,152.241440 81.005432,151.976776 
	C81.005432,151.976776 81.009438,152.007965 81.314133,151.972992 
	C82.417770,151.634140 83.216721,151.330231 84.254982,151.218994 
	C86.448097,152.084579 88.400253,153.297836 90.356071,153.303772 
	C93.289185,153.312668 97.037506,153.381271 98.902901,151.709915 
	C100.401215,150.367432 100.069756,146.420410 99.713425,143.740402 
	C99.403893,141.412445 97.921593,139.240433 97.129196,136.729080 
	C98.204865,135.952988 99.108910,135.447311 100.184418,135.235535 
	C102.882225,137.290405 105.408569,139.051407 107.934921,140.812408 
	C108.224052,140.458908 108.513176,140.105408 108.802307,139.751907 
	C108.068039,138.100784 107.333771,136.449661 106.305496,134.137436 
	C108.745850,134.749847 110.450150,135.177536 112.845154,135.778580 
	C111.841736,133.600479 111.207329,132.223389 110.602348,130.910172 
	C111.047691,130.600067 111.185326,130.422852 111.314262,130.428970 
	C111.796715,130.451859 112.349945,130.399857 112.745689,130.615845 
	C117.016968,132.947067 119.958603,132.430145 121.222961,127.141556 
	C121.439682,126.235031 122.965996,125.441986 124.050331,124.974709 
	C131.380676,121.815765 135.387375,115.603218 139.230316,108.746506 
	C142.482727,107.114777 145.438263,105.601219 148.500961,104.349976 
	C165.309967,97.482750 183.208755,96.247627 200.971359,94.354607 
	C202.419754,94.200241 203.918854,94.528549 205.394867,94.625626 
	C212.321350,95.081161 219.248016,95.534279 226.174606,95.988258 
	C226.174606,95.988258 226.553925,96.047913 226.919220,96.442474 
	C229.859055,97.225510 232.433609,97.613976 235.008148,98.002441 
	C235.174561,98.032921 235.340973,98.063408 235.990219,98.442688 
	C238.665451,99.182953 240.857834,99.574440 243.050232,99.965919 
	C243.050232,99.965919 243.001801,99.998932 243.149826,100.316277 
	C245.203659,101.083572 247.109451,101.533531 249.015259,101.983490 
	C249.180222,102.013557 249.345169,102.043617 249.979828,102.312134 
	C250.993713,102.700386 251.537918,102.850204 252.082108,103.000015 
	C252.082108,103.000015 252.531265,103.074112 252.976959,103.321030 
	C253.974350,103.709419 254.526031,103.850906 255.077713,103.992386 
	C255.077713,103.992386 255.511475,104.062119 255.855957,104.441696 
	C258.827942,105.883301 261.455414,106.945335 264.082916,108.007370 
	C264.082916,108.007362 264.508026,108.075737 264.884399,108.308105 
	C265.505341,108.757919 265.786255,108.906677 266.103516,108.986748 
	C266.103516,108.986748 266.542938,109.067184 266.883698,109.439613 
	C268.170929,110.196426 269.117401,110.580818 270.063873,110.965202 
	C270.063873,110.965202 270.004211,110.989075 270.049438,111.201408 
	C271.062622,111.944923 272.030640,112.476097 273.263947,113.009712 
	C273.705933,113.003181 273.882568,112.994209 274.059204,112.985237 
	C274.059204,112.985237 274.474976,113.069290 274.792938,113.456169 
	C276.430939,114.562378 277.750946,115.281708 279.070984,116.001045 
	C279.070984,116.001045 279.477783,116.093338 279.788300,116.472389 
	C283.077576,118.564087 286.056335,120.276741 289.035095,121.989395 
	C289.035095,121.989395 288.994171,122.003876 289.060059,122.330574 
	C290.761932,123.767067 292.397919,124.876869 294.033905,125.986671 
	C294.033905,125.986671 293.996857,126.003716 294.104431,126.304947 
	C295.157227,127.059517 296.102478,127.512848 297.047699,127.966179 
	C297.047699,127.966179 297.001312,127.998466 297.129883,128.193481 
	C297.527802,128.588501 297.797119,128.788513 298.066467,128.988525 
	C298.066467,128.988525 298.003265,128.997772 298.132477,129.187500 
	C298.527069,129.584229 298.792419,129.791214 299.057800,129.998199 
	C299.057800,129.998199 298.997803,130.001968 299.062195,130.321869 
	C301.106628,132.074493 303.086670,133.507202 305.066681,134.939896 
	C305.066681,134.939896 305.000519,134.998779 305.023865,135.330688 
	C306.630432,137.098434 308.213684,138.534256 309.796936,139.970093 
	C310.997162,141.282364 312.197357,142.594620 313.718384,144.402863 
	C316.720886,147.916428 319.402588,150.934006 322.084290,153.951584 
	C322.084290,153.951584 322.018555,153.996765 322.033661,154.334259 
	C323.720978,156.768661 325.393188,158.865585 327.065399,160.962509 
	C327.065399,160.962509 327.009888,161.001587 327.025330,161.346924 
	C330.044769,166.456619 333.048767,171.220963 336.052795,175.985306 
	C336.052795,175.985306 336.001068,176.002319 336.003479,176.377396 
	C338.395721,183.352493 340.753174,189.964722 343.227783,196.532822 
	C343.463409,197.158249 344.431793,197.507645 345.059998,197.985199 
	C345.059998,197.985199 345.004333,198.001953 345.003174,198.394379 
	C345.250916,202.137665 345.499878,205.488525 345.748840,208.839401 
z"/>
<path fill="#FDB704" opacity="1.000000" stroke="none" 
	d="
M433.140472,234.004333 
	C433.474792,234.001923 433.727509,234.144409 434.004456,235.000809 
	C436.097107,237.370453 438.083923,239.171097 440.070709,240.971741 
	C440.070709,240.971741 440.003387,240.998306 440.019135,241.330429 
	C441.378510,243.100098 442.722107,244.537628 444.065735,245.975174 
	C444.065735,245.975174 444.005127,246.002060 444.023773,246.346313 
	C444.870728,248.468567 445.511810,250.365997 446.557526,252.005310 
	C453.668488,263.152710 457.113007,275.592896 457.758026,288.522461 
	C458.368591,300.761444 454.706940,312.393463 449.478088,323.509338 
	C448.411224,325.777405 447.755035,328.795044 448.285767,331.158051 
	C450.172607,339.558655 452.687714,347.816803 454.885376,356.149872 
	C455.401337,358.106262 455.605713,360.144836 456.167755,363.378784 
	C446.370209,360.781738 437.660187,358.895782 429.251953,356.101624 
	C423.234985,354.102142 418.254852,354.983734 412.568939,357.477936 
	C405.833038,360.432739 398.540558,363.076569 391.296631,363.734833 
	C370.014618,365.668793 350.884003,359.796326 334.711060,345.323853 
	C333.453552,344.198608 331.560791,343.783234 329.963318,343.037964 
	C329.963318,343.037933 330.000000,343.000000 329.987976,342.653107 
	C327.299561,338.356873 324.545898,334.457275 321.964600,330.446747 
	C317.860443,324.070160 313.355682,317.828827 314.726807,309.493469 
	C314.918915,308.325806 314.494781,306.383453 313.668152,305.833618 
	C309.175995,302.845703 309.749634,298.340912 310.086945,294.143005 
	C310.668396,286.906525 311.337585,279.632385 312.694366,272.512115 
	C315.633087,257.089691 323.710876,244.549194 335.717224,234.601471 
	C346.482483,225.682068 358.454559,219.891037 372.624084,217.437866 
	C384.478821,215.385437 395.341095,217.299179 406.425049,220.152908 
	C410.367279,221.167877 414.180359,222.684570 418.052399,223.972229 
	C418.052399,223.972229 417.998322,223.997299 418.121796,224.304443 
	C419.516541,225.059021 420.787842,225.506470 422.059113,225.953903 
	C422.059113,225.953903 421.998260,225.996368 422.033478,226.325928 
	C424.400024,228.095703 426.731354,229.535889 429.062653,230.976074 
	C429.062653,230.976089 428.999023,230.995255 429.072327,231.316513 
	C430.477234,232.426636 431.808838,233.215485 433.140472,234.004333 
M359.019684,292.035522 
	C360.251312,287.369904 357.514313,284.487366 354.009308,282.669830 
	C350.205414,280.697266 346.729279,282.442413 344.096039,285.500366 
	C341.357391,288.680725 341.617706,293.130005 344.476929,295.955444 
	C348.113922,299.549438 352.043427,300.269623 354.868286,297.650085 
	C356.404053,296.225983 357.631927,294.469788 359.019684,292.035522 
M424.015167,287.097198 
	C423.206818,286.084839 422.501648,284.963806 421.571014,284.080261 
	C418.669952,281.325958 415.344818,281.209869 412.185974,283.367981 
	C408.249756,286.057220 406.817017,289.554596 408.880859,294.383453 
	C410.553162,298.296295 413.449615,299.283051 417.106567,298.985291 
	C421.766968,298.605835 424.024414,294.857788 424.015167,287.097198 
M377.444427,295.996552 
	C378.272461,296.487457 379.224762,296.846802 379.907257,297.491760 
	C383.077362,300.487213 386.089813,298.345856 388.565399,296.763336 
	C391.430725,294.931702 392.899445,291.823944 391.695923,288.223938 
	C390.539764,284.765442 387.917389,281.942444 384.465393,282.234863 
	C381.620605,282.475861 378.423553,284.423096 376.363373,286.559784 
	C373.852509,289.163879 374.537354,292.593719 377.444427,295.996552 
M316.621979,302.273346 
	C316.158264,302.533142 315.694550,302.792938 315.230835,303.052704 
	C315.461426,303.397614 315.692017,303.742554 315.922607,304.087463 
	C316.209625,303.646759 316.496643,303.206085 316.621979,302.273346 
z"/>
<path fill="#F9B70E" opacity="1.000000" stroke="none" 
	d="
M373.941315,154.097946 
	C367.824677,141.931030 356.763763,136.511810 345.277527,133.433578 
	C352.442169,129.500488 360.337830,126.262001 366.893890,121.265717 
	C373.755035,116.036911 375.442810,107.066452 378.496033,98.904167 
	C381.223969,118.110886 392.302307,128.562698 410.848328,133.340500 
	C407.278961,134.556427 403.763977,135.976196 400.128876,136.945557 
	C392.723999,138.920181 382.374359,150.428070 381.198425,158.074554 
	C380.440216,159.352051 380.252289,160.201736 380.064331,161.051437 
	C380.064331,161.051437 380.006073,161.034897 379.703918,160.969910 
	C378.329407,160.548019 377.257019,160.191116 376.184662,159.834213 
	C376.184662,159.834213 376.023865,159.478485 376.009277,158.945267 
	C375.642639,157.611038 375.290649,156.810043 374.938629,156.009033 
	C374.938629,156.009033 374.998627,156.015808 374.944031,155.742661 
	C374.573425,155.012314 374.257385,154.555130 373.941315,154.097946 
z"/>
<path fill="#1EA7DE" opacity="1.000000" stroke="none" 
	d="
M272.057739,265.811676 
	C263.578888,269.736420 248.919815,263.265839 247.117554,250.077560 
	C245.535477,238.500626 249.482925,230.601517 258.107880,227.156693 
	C267.839172,223.269974 277.086945,224.656769 283.792145,234.204773 
	C284.377258,234.764450 284.568695,234.955917 284.789520,235.118042 
	C284.789520,235.118042 284.922852,235.465805 284.958618,236.085815 
	C285.119385,237.357376 285.236938,238.010468 285.370544,238.660278 
	C287.344788,248.262848 285.980011,258.286682 274.991974,263.379730 
	C273.877594,263.896301 273.029419,264.987244 272.057739,265.811676 
z"/>
<path fill="#1AA9E2" opacity="1.000000" stroke="none" 
	d="
M136.006531,265.819672 
	C133.273331,265.534546 130.540131,265.249390 127.316650,264.567169 
	C124.734367,262.395752 122.343216,260.872284 120.605980,258.800446 
	C115.205055,252.359482 113.293777,241.247833 120.328346,233.233444 
	C125.498100,227.343613 134.729645,225.535172 143.000641,229.535019 
	C152.375565,234.068695 155.400543,245.286469 150.618195,254.375580 
	C147.306839,260.669037 141.123367,262.349854 136.006531,265.819672 
z"/>
<path fill="#1CA8E1" opacity="1.000000" stroke="none" 
	d="
M221.093567,249.018677 
	C219.960770,261.008820 208.440689,268.744141 194.156357,264.621521 
	C192.063004,262.994812 190.583893,261.690277 189.067917,260.430145 
	C184.847610,256.922058 181.746811,252.835938 182.359131,247.055222 
	C186.492050,249.237381 189.714355,249.029114 192.947845,245.681595 
	C196.126526,242.390793 194.335464,239.653381 192.858917,236.686401 
	C191.902786,234.765167 190.910553,232.861923 190.131683,230.722626 
	C190.826492,229.678375 191.324097,228.862137 191.821701,228.045898 
	C192.314453,227.704514 192.807190,227.363129 193.777496,227.314667 
	C196.631348,230.042160 199.007660,232.476746 201.383972,234.911331 
	C201.760437,234.580521 202.136917,234.249710 202.513382,233.918900 
	C202.612427,232.833267 202.711472,231.747635 202.739883,231.436218 
	C205.165970,230.486176 207.062042,229.743683 209.307678,229.004120 
	C210.123108,229.003403 210.588989,228.999756 211.054855,228.996124 
	C211.054855,228.996124 211.483215,229.061874 211.847443,229.305145 
	C212.442902,229.769958 212.714722,229.915878 213.027130,229.986130 
	C213.027130,229.986130 212.997910,230.002243 213.120361,230.205948 
	C213.446289,230.682068 213.706223,230.880554 214.022598,231.005127 
	C214.022598,231.005127 213.988251,231.010132 214.113480,231.210205 
	C214.446564,231.680923 214.709763,231.877441 215.028305,231.999832 
	C215.028305,231.999832 214.991882,232.009979 215.125397,232.211853 
	C215.533142,232.611191 215.807388,232.808685 216.081635,233.006180 
	C216.409393,233.039520 216.663605,233.193939 216.933426,234.083694 
	C218.379593,239.471512 219.736588,244.245102 221.093567,249.018677 
z"/>
<path fill="#F2B821" opacity="1.000000" stroke="none" 
	d="
M330.084869,343.365845 
	C331.560791,343.783234 333.453552,344.198608 334.711060,345.323853 
	C350.884003,359.796326 370.014618,365.668793 391.296631,363.734833 
	C398.540558,363.076569 405.833038,360.432739 412.568939,357.477936 
	C418.254852,354.983734 423.234985,354.102142 429.251953,356.101624 
	C437.660187,358.895782 446.370209,360.781738 456.167755,363.378784 
	C455.605713,360.144836 455.401337,358.106262 454.885376,356.149872 
	C452.687714,347.816803 450.172607,339.558655 448.285767,331.158051 
	C447.755035,328.795044 448.411224,325.777405 449.478088,323.509338 
	C454.706940,312.393463 458.368591,300.761444 457.758026,288.522461 
	C457.113007,275.592896 453.668488,263.152710 446.557526,252.005310 
	C445.511810,250.365997 444.870728,248.468567 444.036011,246.315735 
	C451.039276,252.522003 454.706421,261.235077 456.737854,270.082458 
	C460.901154,288.214874 461.140381,306.345184 452.009186,323.568024 
	C450.744110,325.954163 450.494354,329.477173 451.119965,332.160187 
	C453.433228,342.080933 456.388489,351.850433 458.887360,361.731201 
	C459.238434,363.119202 458.769623,365.078430 457.937744,366.242676 
	C457.542938,366.795227 455.337982,366.305939 454.056366,365.933319 
	C444.136078,363.049103 434.292053,359.881561 424.298370,357.287140 
	C422.103546,356.717346 419.216583,357.660522 416.971130,358.643982 
	C408.486877,362.359863 399.912323,365.671570 390.527374,365.971924 
	C379.338959,366.330078 368.109894,366.475433 357.542755,361.967285 
	C347.310791,357.602112 337.525482,352.464874 330.084869,343.365845 
z"/>
<path fill="#F2B821" opacity="1.000000" stroke="none" 
	d="
M417.912415,223.637970 
	C414.180359,222.684570 410.367279,221.167877 406.425049,220.152908 
	C395.341095,217.299179 384.478821,215.385437 372.624084,217.437866 
	C358.454559,219.891037 346.482483,225.682068 335.717224,234.601471 
	C323.710876,244.549194 315.633087,257.089691 312.694366,272.512115 
	C311.337585,279.632385 310.668396,286.906525 310.086945,294.143005 
	C309.749634,298.340912 309.175995,302.845703 313.668152,305.833618 
	C314.494781,306.383453 314.918915,308.325806 314.726807,309.493469 
	C313.355682,317.828827 317.860443,324.070160 321.964600,330.446747 
	C324.545898,334.457275 327.299561,338.356873 329.968628,342.671448 
	C320.141327,334.585449 314.386810,323.717377 310.769836,311.447144 
	C305.205353,292.570221 306.694000,274.007050 315.278870,256.690002 
	C323.658813,239.786362 336.976532,227.362442 354.779510,219.873108 
	C369.779663,213.562866 385.012939,213.686234 400.388733,216.930466 
	C406.365479,218.191513 411.988373,221.129578 417.912415,223.637970 
z"/>
<path fill="#329DC3" opacity="1.000000" stroke="none" 
	d="
M54.093849,288.437744 
	C55.167202,289.490448 56.408268,290.827118 57.118397,292.403076 
	C60.656246,300.254486 63.917843,308.232483 67.556229,316.035583 
	C69.546906,320.304871 70.064003,324.237518 68.655975,328.949463 
	C65.384377,339.897797 62.786652,351.047485 59.673347,362.809082 
	C58.263874,368.661804 57.096859,373.820984 55.929840,378.980194 
	C54.190899,384.241089 52.451962,389.501953 50.180157,396.374969 
	C56.963898,394.553345 62.139297,393.178070 67.306580,391.772919 
	C76.752388,389.204346 86.188019,386.597870 95.648239,384.083771 
	C96.294670,383.912018 97.110466,384.377625 97.949165,384.817200 
	C82.474213,389.490662 66.906548,393.925903 51.314610,398.274048 
	C47.446598,399.352753 47.759998,396.617584 48.335556,394.379120 
	C50.927143,384.299927 53.623413,374.246948 56.366390,364.207581 
	C59.878689,351.352509 63.243782,338.449219 67.164421,325.718292 
	C68.398392,321.711365 66.050949,319.406311 64.871788,316.423279 
	C61.238586,307.232056 57.633053,298.029938 54.093849,288.437744 
z"/>
<path fill="#369FC5" opacity="1.000000" stroke="none" 
	d="
M90.046036,286.986664 
	C87.887810,278.165680 85.475334,269.396393 83.668755,260.503967 
	C82.620880,255.346054 81.975563,249.973541 82.128960,244.726257 
	C83.033257,213.791992 93.393837,186.519089 115.349640,164.398224 
	C123.261139,156.427246 132.273773,149.453156 141.328232,142.760590 
	C144.877426,140.137207 149.919113,139.533035 154.679550,138.024750 
	C149.554535,141.329514 143.960983,144.507263 138.519348,147.926743 
	C110.577202,165.485321 93.557533,191.017517 86.395721,222.740875 
	C82.206116,241.298798 82.900024,260.257172 88.912811,278.674194 
	C89.717163,281.137909 90.297989,283.674622 90.783508,286.574829 
	C90.405136,286.976990 90.225586,286.981812 90.046036,286.986664 
z"/>
<path fill="#27ADE4" opacity="1.000000" stroke="none" 
	d="
M138.982895,108.985764 
	C135.387375,115.603218 131.380676,121.815765 124.050331,124.974709 
	C122.965996,125.441986 121.439682,126.235031 121.222961,127.141556 
	C119.958603,132.430145 117.016968,132.947067 112.745689,130.615845 
	C112.349945,130.399857 111.796715,130.451859 111.314262,130.428970 
	C111.185326,130.422852 111.047691,130.600067 110.602348,130.910172 
	C111.207329,132.223389 111.841736,133.600479 112.845154,135.778580 
	C110.450150,135.177536 108.745850,134.749847 106.305496,134.137436 
	C107.333771,136.449661 108.068039,138.100784 108.802307,139.751907 
	C108.513176,140.105408 108.224052,140.458908 107.934921,140.812408 
	C105.408569,139.051407 102.882225,137.290405 100.411186,135.012177 
	C101.316200,133.011765 102.165909,131.528580 103.346237,129.970184 
	C104.788445,128.599976 105.900032,127.304955 107.011627,126.009949 
	C107.011627,126.009949 107.000305,126.000305 107.374878,126.002899 
	C110.830894,123.663635 113.912331,121.321785 116.993767,118.979935 
	C116.993767,118.979935 117.001045,119.003860 117.332832,118.993340 
	C118.440544,118.299019 119.216476,117.615219 119.992401,116.931419 
	C120.024155,116.587914 120.185158,116.322937 120.921219,115.985779 
	C121.635780,115.674858 121.863533,115.469223 122.050262,115.218155 
	C122.050262,115.218155 122.462708,115.088318 122.949608,115.153542 
	C126.165665,115.684669 127.514320,114.733093 126.939827,111.806839 
	C129.721802,110.619728 132.503769,109.432610 135.859222,108.322662 
	C137.282776,108.595139 138.132828,108.790451 138.982895,108.985764 
z"/>
<path fill="#369FC5" opacity="1.000000" stroke="none" 
	d="
M136.331589,265.987671 
	C141.123367,262.349854 147.306839,260.669037 150.618195,254.375580 
	C155.400543,245.286469 152.375565,234.068695 143.000641,229.535019 
	C134.729645,225.535172 125.498100,227.343613 120.328346,233.233444 
	C113.293777,241.247833 115.205055,252.359482 120.605980,258.800446 
	C122.343216,260.872284 124.734367,262.395752 126.904846,264.499969 
	C117.877106,262.796661 114.404076,255.601669 113.297440,247.752808 
	C112.281616,240.548111 115.298508,233.894409 121.409172,229.297150 
	C133.794861,219.979019 153.680206,227.554688 155.165085,244.398453 
	C156.116989,255.196381 146.342209,267.302734 136.331589,265.987671 
z"/>
<path fill="#369FC5" opacity="1.000000" stroke="none" 
	d="
M64.598969,177.035400 
	C64.779099,178.559616 64.913963,180.298569 64.403175,181.820877 
	C60.734261,192.755341 56.343674,203.488174 53.376209,214.603760 
	C51.276047,222.470596 50.217621,230.831909 50.172752,238.980637 
	C50.104530,251.371292 51.317692,263.769012 51.967735,276.630798 
	C50.977856,274.803284 49.380844,272.572784 49.138432,270.203674 
	C47.669395,255.846802 46.850483,241.567352 48.782040,227.048615 
	C51.127872,209.415939 55.822701,192.769623 64.598969,177.035400 
z"/>
<path fill="#1CA8E1" opacity="1.000000" stroke="none" 
	d="
M301.828522,72.153984 
	C301.828522,72.153984 301.956238,72.510605 302.017578,73.056305 
	C303.068756,74.399803 304.058533,75.197601 305.048340,75.995399 
	C305.048340,75.995399 304.992004,75.998100 305.120789,76.190475 
	C305.516510,76.588020 305.783478,76.793190 306.050415,76.998360 
	C306.050415,76.998360 306.000336,77.004852 306.097534,77.291466 
	C306.988434,78.731972 307.782104,79.885864 308.124573,80.383751 
	C304.525665,84.554054 301.297821,88.294350 298.327850,91.735847 
	C296.482086,90.109825 294.719513,88.557076 292.956940,87.004318 
	C292.956940,87.004326 293.005493,86.998650 292.879944,86.801620 
	C292.486603,86.401131 292.218781,86.197685 291.950989,85.994232 
	C291.950989,85.994232 292.004822,85.995407 291.880310,85.800232 
	C291.489075,85.399490 291.222382,85.193932 290.955688,84.988358 
	C290.955688,84.988358 291.003967,84.993271 290.919128,84.697205 
	C289.553253,83.467789 288.272247,82.534424 287.509583,81.978729 
	C291.175446,77.709251 294.147095,74.152840 297.246185,70.711182 
	C297.953125,69.926102 299.100342,69.537445 300.044891,68.966331 
	C300.044891,68.966331 299.999329,68.999039 300.105377,69.174194 
	C300.366241,69.599846 300.556641,69.819489 300.782623,70.008286 
	C300.782623,70.008286 300.928558,70.431274 301.057404,70.891891 
	C301.400330,71.619659 301.614441,71.886818 301.828522,72.153984 
z"/>
<path fill="#3EA3C5" opacity="1.000000" stroke="none" 
	d="
M292.957886,174.401917 
	C294.714935,175.575653 296.927490,176.814911 298.197998,178.691849 
	C307.216949,192.016022 314.062592,206.311813 316.853607,222.321533 
	C316.964447,222.957382 317.282074,223.557175 317.829773,225.083572 
	C321.246552,222.597382 324.275574,220.188538 327.508270,218.094025 
	C331.364868,215.595276 335.395966,213.365829 339.733215,211.004486 
	C332.533966,217.111252 324.952942,223.233246 316.417480,230.125961 
	C312.510712,209.889130 305.514832,191.083893 292.957886,174.401917 
z"/>
<path fill="#31A0C8" opacity="1.000000" stroke="none" 
	d="
M139.230316,108.746506 
	C138.132828,108.790451 137.282776,108.595139 136.185242,108.178886 
	C152.689270,99.053566 170.493546,94.171799 189.515762,94.033150 
	C198.192429,93.969902 206.872162,93.919365 215.546066,94.089149 
	C218.955246,94.155891 222.352341,94.840378 225.964767,95.615906 
	C219.248016,95.534279 212.321350,95.081161 205.394867,94.625626 
	C203.918854,94.528549 202.419754,94.200241 200.971359,94.354607 
	C183.208755,96.247627 165.309967,97.482750 148.500961,104.349976 
	C145.438263,105.601219 142.482727,107.114777 139.230316,108.746506 
z"/>
<path fill="#369FC5" opacity="1.000000" stroke="none" 
	d="
M258.433899,386.878296 
	C262.233795,384.318329 266.507538,381.995605 270.551025,379.324280 
	C280.424622,372.801331 290.228851,366.171021 299.971191,359.453705 
	C301.991119,358.060974 303.524139,355.982574 305.450745,354.430145 
	C311.550140,349.515381 311.825409,348.395569 308.331665,341.355896 
	C308.764893,340.965881 308.973022,340.946228 309.181183,340.926544 
	C310.630371,342.642792 312.364990,344.204254 313.413666,346.137726 
	C313.975159,347.173004 313.922150,349.415222 313.185486,350.152313 
	C297.437103,365.909515 279.954437,379.160492 258.433899,386.878296 
z"/>
<path fill="#31A0C8" opacity="1.000000" stroke="none" 
	d="
M90.104958,287.352417 
	C90.225586,286.981812 90.405136,286.976990 90.853851,286.962036 
	C96.076218,296.215759 101.167152,305.410797 105.859695,314.804779 
	C106.737129,316.561371 106.465096,319.225159 105.958740,321.281982 
	C103.824821,329.949951 101.401268,338.546631 99.093674,347.561157 
	C98.466644,347.493866 97.829613,347.034729 97.133102,345.890503 
	C98.726784,339.140228 100.379951,333.074982 102.033112,327.009766 
	C105.131416,320.761444 104.190414,315.117340 100.639084,309.113861 
	C96.608719,302.300598 93.610703,294.876648 90.104958,287.352417 
z"/>
<path fill="#31A0C8" opacity="1.000000" stroke="none" 
	d="
M168.098709,394.403351 
	C174.342392,394.715637 180.805710,395.095306 187.172806,396.090637 
	C199.667419,398.043884 211.975739,396.777771 224.297028,394.730225 
	C226.897812,394.298035 229.562744,394.251862 232.650650,394.042938 
	C230.819656,395.034546 228.593002,396.672119 226.242844,396.874359 
	C215.406006,397.806915 204.513885,399.082092 193.682480,398.778137 
	C185.182281,398.539581 176.741837,396.171204 168.098709,394.403351 
z"/>
<path fill="#369FC5" opacity="1.000000" stroke="none" 
	d="
M155.431702,138.051712 
	C156.062851,137.130600 156.932632,135.730972 158.150604,135.287323 
	C173.155792,129.821854 188.630020,126.718018 204.642654,127.152466 
	C209.318863,127.279335 213.966431,128.462936 218.796265,129.493225 
	C213.534637,129.560745 208.103851,129.076416 202.673050,129.075989 
	C187.662399,129.074768 173.049591,131.314072 159.180420,137.403458 
	C158.169373,137.847366 156.953033,137.823685 155.431702,138.051712 
z"/>
<path fill="#27ADE4" opacity="1.000000" stroke="none" 
	d="
M419.890747,191.059906 
	C418.693390,189.983398 417.496002,188.906876 415.928375,187.497482 
	C417.691193,186.143433 419.255005,184.942230 421.293762,183.349670 
	C422.802734,182.215302 423.836761,181.472290 424.846680,180.746628 
	C426.297760,181.504395 427.691895,182.232407 429.085999,182.960419 
	C429.085999,182.960419 429.019745,182.976013 429.143799,183.167313 
	C429.537079,183.566330 429.806335,183.774033 430.075592,183.981735 
	C430.075592,183.981735 430.010956,183.989075 430.028137,184.288208 
	C430.369934,186.741074 430.694580,188.894821 431.019226,191.048569 
	C431.019226,191.048569 430.998474,191.000046 430.686615,191.057892 
	C428.615173,192.400482 426.855591,193.685226 425.279541,194.835953 
	C423.768463,193.861450 422.347595,192.945129 420.926727,192.028809 
	C420.926727,192.028824 420.991608,192.016113 420.853058,191.832748 
	C420.439911,191.452881 420.165344,191.256393 419.890747,191.059906 
z"/>
<path fill="#3EA3C5" opacity="1.000000" stroke="none" 
	d="
M182.003616,246.980804 
	C181.746811,252.835938 184.847610,256.922058 189.067917,260.430145 
	C190.583893,261.690277 192.063004,262.994812 193.732544,264.547241 
	C188.299225,264.233337 181.421906,257.199493 180.044235,250.735229 
	C178.333191,242.706726 180.444733,235.826889 186.380737,230.245895 
	C187.581848,229.116653 189.511642,228.762482 191.463593,228.048431 
	C191.324097,228.862137 190.826492,229.678375 189.850830,230.902039 
	C184.562134,235.426193 181.319183,240.280106 182.003616,246.980804 
z"/>
<path fill="#3EA3C5" opacity="1.000000" stroke="none" 
	d="
M292.987335,87.380203 
	C294.719513,88.557076 296.482086,90.109825 298.327850,91.735847 
	C301.297821,88.294350 304.525665,84.554054 308.124573,80.383751 
	C307.782104,79.885864 306.988434,78.731972 306.099792,77.266350 
	C309.668671,78.078255 313.332520,79.201889 318.273315,80.717155 
	C312.963440,83.067741 308.063721,84.034897 304.981201,86.934097 
	C301.800262,89.925880 300.387054,94.797211 297.895752,99.410484 
	C296.170990,95.289757 294.594360,91.522926 292.987335,87.380203 
z"/>
<path fill="#3EA3C5" opacity="1.000000" stroke="none" 
	d="
M300.035706,68.558037 
	C299.100342,69.537445 297.953125,69.926102 297.246185,70.711182 
	C294.147095,74.152840 291.175446,77.709251 287.509583,81.978729 
	C288.272247,82.534424 289.553253,83.467789 290.919159,84.721474 
	C287.701019,83.877838 283.812408,83.715302 281.404510,79.506439 
	C292.441040,78.513741 294.949738,70.385399 298.508850,61.882298 
	C299.014740,63.971447 299.520599,66.060593 300.035706,68.558037 
z"/>
<path fill="#31A0C8" opacity="1.000000" stroke="none" 
	d="
M135.956360,343.665741 
	C123.774963,339.701843 113.251427,347.440582 101.817482,349.083099 
	C100.941032,349.209015 99.972794,348.696014 99.052612,348.183258 
	C107.871971,345.331879 116.588531,342.294128 125.553154,340.486908 
	C128.656845,339.861176 132.376450,342.290710 135.956360,343.665741 
z"/>
<path fill="#3EA3C5" opacity="1.000000" stroke="none" 
	d="
M272.428314,265.885742 
	C273.029419,264.987244 273.877594,263.896301 274.991974,263.379730 
	C285.980011,258.286682 287.344788,248.262848 285.370544,238.660278 
	C285.236938,238.010468 285.119385,237.357376 284.980591,236.270721 
	C289.129395,240.687469 289.890564,246.372009 287.797028,252.075165 
	C285.229675,259.069153 280.709869,264.482086 272.428314,265.885742 
z"/>
<path fill="#27ADE4" opacity="1.000000" stroke="none" 
	d="
M208.958115,229.001190 
	C207.062042,229.743683 205.165970,230.486176 202.739883,231.436218 
	C202.711472,231.747635 202.612427,232.833267 202.513382,233.918900 
	C202.136917,234.249710 201.760437,234.580521 201.383972,234.911331 
	C199.007660,232.476746 196.631348,230.042160 194.100632,227.271957 
	C197.644974,226.662125 201.343719,226.387909 205.649490,226.345276 
	C206.492630,226.799179 206.771103,226.933945 207.091949,226.981125 
	C207.091949,226.981125 207.523254,227.063385 207.793350,227.391754 
	C208.361679,228.147125 208.659897,228.574158 208.958115,229.001190 
z"/>
<path fill="#369FC5" opacity="1.000000" stroke="none" 
	d="
M103.015610,130.045395 
	C102.165909,131.528580 101.316200,133.011765 100.239731,134.718292 
	C99.108910,135.447311 98.204865,135.952988 96.850601,136.902954 
	C92.272141,141.906937 88.143906,146.466629 84.015663,151.026321 
	C83.216721,151.330231 82.417770,151.634140 81.298920,151.969009 
	C83.381317,148.770615 85.483582,145.251999 88.254349,142.377823 
	C92.713425,137.752335 97.613777,133.552246 102.658386,129.325592 
	C102.997910,129.667633 103.006752,129.856506 103.015610,130.045395 
z"/>
<path fill="#3EA3C5" opacity="1.000000" stroke="none" 
	d="
M250.075562,139.408081 
	C258.978302,140.666534 265.718231,146.074692 271.974792,152.677002 
	C264.735718,148.596512 257.475616,144.161209 250.075562,139.408081 
z"/>
<path fill="#3EA3C5" opacity="1.000000" stroke="none" 
	d="
M301.896545,328.764526 
	C300.593842,327.280975 299.301697,325.455566 298.185364,323.528290 
	C297.245331,321.905457 296.509705,320.164215 295.570129,318.243408 
	C292.889893,320.395508 290.747528,322.115723 288.277405,323.916565 
	C290.500946,320.226227 293.052246,316.455261 295.993439,312.108002 
	C298.239746,318.209717 300.111511,323.294128 301.896545,328.764526 
z"/>
<path fill="#369FC5" opacity="1.000000" stroke="none" 
	d="
M79.680206,153.101044 
	C78.461334,156.031326 77.123459,159.212036 75.330849,162.111618 
	C72.240433,167.110413 68.867126,171.934326 65.261734,176.892120 
	C69.726143,169.043396 74.541351,161.134186 79.680206,153.101044 
z"/>
<path fill="#31A0C8" opacity="1.000000" stroke="none" 
	d="
M164.886581,357.654816 
	C154.745743,356.802246 146.156342,351.860626 138.088501,345.300720 
	C145.402603,348.513123 152.770172,352.088989 160.166306,355.604736 
	C161.625290,356.298218 163.194351,356.760101 164.886581,357.654816 
z"/>
<path fill="#3EA3C5" opacity="1.000000" stroke="none" 
	d="
M272.085266,153.321259 
	C273.395721,153.329941 275.320831,153.178284 276.166779,154.060913 
	C280.586060,158.671982 284.731354,163.545670 288.971802,168.691193 
	C283.381805,163.915588 277.791931,158.776825 272.085266,153.321259 
z"/>
<path fill="#369FC5" opacity="1.000000" stroke="none" 
	d="
M345.032745,197.582062 
	C344.431793,197.507645 343.463409,197.158249 343.227783,196.532822 
	C340.753174,189.964722 338.395721,183.352493 336.013184,176.351959 
	C339.015503,183.027267 342.010498,190.103104 345.032745,197.582062 
z"/>
<path fill="#3EA3C5" opacity="1.000000" stroke="none" 
	d="
M420.964630,192.401871 
	C422.347595,192.945129 423.768463,193.861450 425.279541,194.835953 
	C426.855591,193.685226 428.615173,192.400482 430.711243,191.067413 
	C429.174164,194.544281 427.300598,198.069489 425.136139,202.142105 
	C423.690277,198.865646 422.346405,195.820297 420.964630,192.401871 
z"/>
<path fill="#3EA3C5" opacity="1.000000" stroke="none" 
	d="
M429.058533,182.580811 
	C427.691895,182.232407 426.297760,181.504395 424.846680,180.746628 
	C423.836761,181.472290 422.802734,182.215302 421.464752,183.059677 
	C422.178223,180.084213 423.195618,177.007370 424.213013,173.930527 
	C424.662323,173.875092 425.111664,173.819656 425.561005,173.764206 
	C426.717682,176.576553 427.874359,179.388885 429.058533,182.580811 
z"/>
<path fill="#F2B821" opacity="1.000000" stroke="none" 
	d="
M376.109558,160.274216 
	C377.257019,160.191116 378.329407,160.548019 379.729340,160.988113 
	C379.844818,163.941772 379.632721,166.812225 379.420624,169.682678 
	C378.715424,169.728149 378.010223,169.773636 377.305054,169.819107 
	C376.881500,166.784149 376.457977,163.749176 376.109558,160.274216 
z"/>
<path fill="#369FC5" opacity="1.000000" stroke="none" 
	d="
M336.019653,175.618958 
	C333.048767,171.220963 330.044769,166.456619 327.042175,161.317551 
	C330.024628,165.712753 333.005585,170.482681 336.019653,175.618958 
z"/>
<path fill="#329DC3" opacity="1.000000" stroke="none" 
	d="
M221.431396,248.811340 
	C219.736588,244.245102 218.379593,239.471512 217.005432,234.301422 
	C221.541428,237.841995 221.682907,243.214035 221.431396,248.811340 
z"/>
<path fill="#3EA3C5" opacity="1.000000" stroke="none" 
	d="
M213.689362,362.078552 
	C205.315063,362.282410 196.467545,362.375061 187.299698,362.192108 
	C195.724945,361.933441 204.470551,361.950378 213.689362,362.078552 
z"/>
<path fill="#3EA3C5" opacity="1.000000" stroke="none" 
	d="
M287.674530,324.063843 
	C287.965393,324.702393 287.936157,325.451355 287.628357,326.760620 
	C284.320374,329.642914 281.290985,331.964905 278.181946,334.200226 
	C278.102295,334.113586 277.942780,333.940521 277.942780,333.940521 
	C281.079987,330.685089 284.217194,327.429626 287.674530,324.063843 
z"/>
<path fill="#3EA3C5" opacity="1.000000" stroke="none" 
	d="
M309.123779,340.568420 
	C308.973022,340.946228 308.764893,340.965881 308.243713,341.013550 
	C305.966583,337.613831 304.002533,334.186096 302.040527,330.377319 
	C304.383820,333.400940 306.725098,336.805634 309.123779,340.568420 
z"/>
<path fill="#3EA3C5" opacity="1.000000" stroke="none" 
	d="
M431.381714,191.015335 
	C430.694580,188.894821 430.369934,186.741074 430.046814,184.261597 
	C432.492004,185.136475 434.935638,186.337097 437.938690,187.812592 
	C435.783234,188.915466 433.763733,189.948792 431.381714,191.015335 
z"/>
<path fill="#3EA3C5" opacity="1.000000" stroke="none" 
	d="
M272.996216,339.926453 
	C271.890350,340.261169 270.784515,340.595856 269.330780,340.920288 
	C271.731079,338.610504 274.479248,336.311005 277.585083,333.976013 
	C277.942780,333.940521 278.102295,334.113586 278.030487,334.485687 
	C276.304535,336.547363 274.650391,338.236938 272.996216,339.926453 
z"/>
<path fill="#369FC5" opacity="1.000000" stroke="none" 
	d="
M322.063812,153.596222 
	C319.402588,150.934006 316.720886,147.916428 314.020447,144.548950 
	C316.682220,147.212997 319.362793,150.226944 322.063812,153.596222 
z"/>
<path fill="#329DC3" opacity="1.000000" stroke="none" 
	d="
M116.631378,118.989334 
	C113.912331,121.321785 110.830894,123.663635 107.379311,126.008842 
	C110.095772,123.674377 113.182381,121.336555 116.631378,118.989334 
z"/>
<path fill="#369FC5" opacity="1.000000" stroke="none" 
	d="
M288.912292,121.662971 
	C286.056335,120.276741 283.077576,118.564087 279.987915,116.532852 
	C282.847839,117.921700 285.818665,119.629128 288.912292,121.662971 
z"/>
<path fill="#369FC5" opacity="1.000000" stroke="none" 
	d="
M346.174835,208.938766 
	C345.499878,205.488525 345.250916,202.137665 345.010742,198.366302 
	C346.871338,201.454407 349.581055,204.840683 346.174835,208.938766 
z"/>
<path fill="#369FC5" opacity="1.000000" stroke="none" 
	d="
M327.039490,160.608154 
	C325.393188,158.865585 323.720978,156.768661 322.053284,154.299545 
	C323.709717,156.036179 325.361633,158.145004 327.039490,160.608154 
z"/>
<path fill="#F2B821" opacity="1.000000" stroke="none" 
	d="
M428.936890,230.656067 
	C426.731354,229.535889 424.400024,228.095703 422.055420,226.294907 
	C424.298462,227.401566 426.554779,228.868820 428.936890,230.656067 
z"/>
<path fill="#F2B821" opacity="1.000000" stroke="none" 
	d="
M440.030914,240.621262 
	C438.083923,239.171097 436.097107,237.370453 434.053284,235.221588 
	C435.994568,236.672485 437.992828,238.471634 440.030914,240.621262 
z"/>
<path fill="#31A0C8" opacity="1.000000" stroke="none" 
	d="
M263.930115,107.678619 
	C261.455414,106.945335 258.827942,105.883301 256.065338,104.508080 
	C258.545959,105.246552 261.161652,106.298218 263.930115,107.678619 
z"/>
<path fill="#31A0C8" opacity="1.000000" stroke="none" 
	d="
M180.980225,361.622925 
	C178.524567,361.588501 175.926147,361.227753 173.147766,360.542725 
	C175.591019,360.577881 178.214233,360.937286 180.980225,361.622925 
z"/>
<path fill="#369FC5" opacity="1.000000" stroke="none" 
	d="
M304.963196,134.618286 
	C303.086670,133.507202 301.106628,132.074493 299.070648,130.293030 
	C300.963043,131.395081 302.911377,132.845886 304.963196,134.618286 
z"/>
<path fill="#31A0C8" opacity="1.000000" stroke="none" 
	d="
M234.828186,97.658020 
	C232.433609,97.613976 229.859055,97.225510 227.097504,96.513733 
	C229.489731,96.564827 232.068985,96.939217 234.828186,97.658020 
z"/>
<path fill="#369FC5" opacity="1.000000" stroke="none" 
	d="
M309.767761,139.651077 
	C308.213684,138.534256 306.630432,137.098434 305.053467,135.297699 
	C306.619385,136.399216 308.179016,137.865646 309.767761,139.651077 
z"/>
<path fill="#369FC5" opacity="1.000000" stroke="none" 
	d="
M293.912109,125.673111 
	C292.397919,124.876869 290.761932,123.767067 289.066833,122.309937 
	C290.601898,123.094910 292.196106,124.227234 293.912109,125.673111 
z"/>
<path fill="#F2B821" opacity="1.000000" stroke="none" 
	d="
M444.024261,245.635132 
	C442.722107,244.537628 441.378510,243.100098 440.034790,241.297836 
	C441.350739,242.387115 442.666748,243.841110 444.024261,245.635132 
z"/>
<path fill="#329DC3" opacity="1.000000" stroke="none" 
	d="
M103.346237,129.970184 
	C103.006752,129.856506 102.997910,129.667633 102.977570,129.195404 
	C104.093102,127.960037 105.220146,127.008003 106.679405,126.032959 
	C105.900032,127.304955 104.788445,128.599976 103.346237,129.970184 
z"/>
<path fill="#31A0C8" opacity="1.000000" stroke="none" 
	d="
M248.839539,101.661163 
	C247.109451,101.533531 245.203659,101.083572 243.163620,100.290436 
	C244.907532,100.411110 246.785660,100.874977 248.839539,101.661163 
z"/>
<path fill="#31A0C8" opacity="1.000000" stroke="none" 
	d="
M242.860489,99.633408 
	C240.857834,99.574440 238.665451,99.182953 236.232513,98.518127 
	C238.218231,98.596817 240.444489,98.948853 242.860489,99.633408 
z"/>
<path fill="#329DC3" opacity="1.000000" stroke="none" 
	d="
M126.632263,111.945938 
	C127.514320,114.733093 126.165665,115.684669 123.160248,115.104797 
	C124.030891,114.022232 125.177795,113.053635 126.632263,111.945938 
z"/>
<path fill="#369FC5" opacity="1.000000" stroke="none" 
	d="
M278.952698,115.674477 
	C277.750946,115.281708 276.430939,114.562378 274.995392,113.519394 
	C276.198059,113.913132 277.516205,114.630524 278.952698,115.674477 
z"/>
<path fill="#F2B821" opacity="1.000000" stroke="none" 
	d="
M433.003540,233.691360 
	C431.808838,233.215485 430.477234,232.426636 429.082642,231.284882 
	C430.302002,231.747467 431.584320,232.562927 433.003540,233.691360 
z"/>
<path fill="#F2B821" opacity="1.000000" stroke="none" 
	d="
M421.924072,225.636612 
	C420.787842,225.506470 419.516541,225.059021 418.131805,224.276154 
	C419.275238,224.400238 420.532135,224.859772 421.924072,225.636612 
z"/>
<path fill="#3EA3C5" opacity="1.000000" stroke="none" 
	d="
M304.948242,75.692886 
	C304.058533,75.197601 303.068756,74.399803 302.047028,73.243393 
	C302.959473,73.719986 303.903839,74.555176 304.948242,75.692886 
z"/>
<path fill="#3EA3C5" opacity="1.000000" stroke="none" 
	d="
M289.033203,169.321228 
	C289.721771,169.562393 290.497986,170.095856 291.144531,170.871262 
	C290.383484,170.613312 289.752167,170.113419 289.033203,169.321228 
z"/>
<path fill="#329DC3" opacity="1.000000" stroke="none" 
	d="
M119.662384,116.963074 
	C119.216476,117.615219 118.440544,118.299019 117.321579,118.987526 
	C117.763145,118.326401 118.547760,117.660568 119.662384,116.963074 
z"/>
<path fill="#369FC5" opacity="1.000000" stroke="none" 
	d="
M296.941650,127.654282 
	C296.102478,127.512848 295.157227,127.059517 294.111328,126.285721 
	C294.952271,126.424294 295.893921,126.883339 296.941650,127.654282 
z"/>
<path fill="#31A0C8" opacity="1.000000" stroke="none" 
	d="
M269.952972,110.647171 
	C269.117401,110.580818 268.170929,110.196426 267.092834,109.518089 
	C267.921509,109.592476 268.881775,109.960815 269.952972,110.647171 
z"/>
<path fill="#31A0C8" opacity="1.000000" stroke="none" 
	d="
M272.998627,113.007271 
	C272.030640,112.476097 271.062622,111.944923 270.063416,111.172485 
	C270.925079,111.059677 271.817993,111.188126 272.857941,111.890900 
	C273.002899,112.645912 273.000763,112.826591 272.998627,113.007271 
z"/>
<path fill="#329DC3" opacity="1.000000" stroke="none" 
	d="
M209.307678,229.004120 
	C208.659897,228.574158 208.361679,228.147125 208.001114,227.462708 
	C208.889511,227.597244 209.840240,227.989182 210.922913,228.688614 
	C210.588989,228.999756 210.123108,229.003403 209.307678,229.004120 
z"/>
<path fill="#F2B821" opacity="1.000000" stroke="none" 
	d="
M374.972717,156.361969 
	C375.290649,156.810043 375.642639,157.611038 375.977722,158.752625 
	C375.642822,158.300430 375.324829,157.507660 374.972717,156.361969 
z"/>
<path fill="#F2B821" opacity="1.000000" stroke="none" 
	d="
M380.385040,160.912628 
	C380.252289,160.201736 380.440216,159.352051 380.867554,158.272736 
	C380.973236,158.953339 380.839478,159.863571 380.385040,160.912628 
z"/>
<path fill="#3EA3C5" opacity="1.000000" stroke="none" 
	d="
M344.112640,208.929260 
	C344.281433,208.929367 344.450195,208.929459 344.871765,208.953186 
	C344.596313,209.306076 344.068115,209.635345 343.201111,209.884918 
	C342.862305,209.805222 342.918671,209.405319 343.234802,209.190002 
	C343.738159,208.959534 343.925415,208.944397 344.112640,208.929260 
z"/>
<path fill="#F2B821" opacity="1.000000" stroke="none" 
	d="
M373.965637,154.403152 
	C374.257385,154.555130 374.573425,155.012314 374.917847,155.757690 
	C374.627472,155.600052 374.308716,155.154205 373.965637,154.403152 
z"/>
<path fill="#31A0C8" opacity="1.000000" stroke="none" 
	d="
M254.944199,103.697548 
	C254.526031,103.850906 253.974350,103.709419 253.193054,103.392548 
	C253.579178,103.279007 254.194931,103.340858 254.944199,103.697548 
z"/>
<path fill="#31A0C8" opacity="1.000000" stroke="none" 
	d="
M251.954773,102.702415 
	C251.537918,102.850204 250.993713,102.700386 250.222839,102.376892 
	C250.606583,102.270401 251.217026,102.337608 251.954773,102.702415 
z"/>
<path fill="#3EA3C5" opacity="1.000000" stroke="none" 
	d="
M305.969238,76.741821 
	C305.783478,76.793190 305.516510,76.588020 305.121582,76.162277 
	C305.291779,76.122887 305.589905,76.304085 305.969238,76.741821 
z"/>
<path fill="#31A0C8" opacity="1.000000" stroke="none" 
	d="
M137.971039,344.704102 
	C137.726379,344.907135 137.447815,344.760742 137.041412,344.369873 
	C137.217194,344.273315 137.558380,344.349731 137.971039,344.704102 
z"/>
<path fill="#31A0C8" opacity="1.000000" stroke="none" 
	d="
M170.967041,358.735077 
	C170.858292,358.987701 170.678970,358.994873 170.230438,358.994446 
	C170.272980,358.821167 170.584717,358.655426 170.967041,358.735077 
z"/>
<path fill="#31A0C8" opacity="1.000000" stroke="none" 
	d="
M167.966660,358.709106 
	C167.764801,358.886353 167.459137,358.794189 166.713654,358.505737 
	C166.803528,358.352905 167.333176,358.396332 167.966660,358.709106 
z"/>
<path fill="#31A0C8" opacity="1.000000" stroke="none" 
	d="
M172.000549,359.726746 
	C171.813812,359.784637 171.542358,359.584808 171.137329,359.167542 
	C171.307785,359.123077 171.611816,359.296021 172.000549,359.726746 
z"/>
<path fill="#369FC5" opacity="1.000000" stroke="none" 
	d="
M80.742020,152.038177 
	C80.808456,152.241440 80.611481,152.506104 80.194641,152.890396 
	C80.142715,152.706528 80.310669,152.403046 80.742020,152.038177 
z"/>
<path fill="#369FC5" opacity="1.000000" stroke="none" 
	d="
M298.992615,129.731506 
	C298.792419,129.791214 298.527069,129.584229 298.135925,129.155762 
	C298.315918,129.111115 298.621704,129.287979 298.992615,129.731506 
z"/>
<path fill="#3EA3C5" opacity="1.000000" stroke="none" 
	d="
M301.878723,71.856110 
	C301.614441,71.886818 301.400330,71.619659 301.091736,71.112961 
	C301.307800,71.101692 301.618347,71.329964 301.878723,71.856110 
z"/>
<path fill="#3EA3C5" opacity="1.000000" stroke="none" 
	d="
M300.824707,69.752365 
	C300.556641,69.819489 300.366241,69.599846 300.121155,69.150398 
	C300.309540,69.133102 300.588135,69.314774 300.824707,69.752365 
z"/>
<path fill="#3EA3C5" opacity="1.000000" stroke="none" 
	d="
M291.022247,85.254471 
	C291.222382,85.193932 291.489075,85.399490 291.880981,85.827141 
	C291.700409,85.873016 291.394592,85.696800 291.022247,85.254471 
z"/>
<path fill="#3EA3C5" opacity="1.000000" stroke="none" 
	d="
M291.953247,173.242004 
	C292.158447,173.175125 292.447357,173.380386 292.860352,173.824142 
	C292.668610,173.879822 292.352814,173.696991 291.953247,173.242004 
z"/>
<path fill="#3EA3C5" opacity="1.000000" stroke="none" 
	d="
M292.020416,86.258751 
	C292.218781,86.197685 292.486603,86.401131 292.880249,86.826080 
	C292.700714,86.872795 292.395264,86.698029 292.020416,86.258751 
z"/>
<path fill="#3EA3C5" opacity="1.000000" stroke="none" 
	d="
M430.005676,183.715469 
	C429.806335,183.774033 429.537079,183.566330 429.142456,183.133301 
	C429.323303,183.088409 429.629547,183.268814 430.005676,183.715469 
z"/>
<path fill="#3EA3C5" opacity="1.000000" stroke="none" 
	d="
M419.987579,191.309937 
	C420.165344,191.256393 420.439911,191.452881 420.851501,191.865784 
	C420.687134,191.908096 420.385773,191.734024 419.987579,191.309937 
z"/>
<path fill="#329DC3" opacity="1.000000" stroke="none" 
	d="
M207.000320,226.721664 
	C206.771103,226.933945 206.492630,226.799179 206.099701,226.401123 
	C206.264816,226.304321 206.586761,226.383255 207.000320,226.721664 
z"/>
<path fill="#3EA3C5" opacity="1.000000" stroke="none" 
	d="
M341.200439,210.842926 
	C341.130096,210.542709 341.374725,210.339569 341.881592,210.097214 
	C341.895782,210.305588 341.686310,210.599579 341.200439,210.842926 
z"/>
<path fill="#329DC3" opacity="1.000000" stroke="none" 
	d="
M121.781204,115.166443 
	C121.863533,115.469223 121.635780,115.674858 121.149216,115.912926 
	C121.125000,115.698769 121.318573,115.406754 121.781204,115.166443 
z"/>
<path fill="#3EA3C5" opacity="1.000000" stroke="none" 
	d="
M284.833313,234.849701 
	C284.568695,234.955917 284.377258,234.764450 284.105042,234.373032 
	C284.289001,234.328751 284.583038,234.455063 284.833313,234.849701 
z"/>
<path fill="#329DC3" opacity="1.000000" stroke="none" 
	d="
M216.001862,232.743835 
	C215.807388,232.808685 215.533142,232.611191 215.128799,232.193253 
	C215.306503,232.142349 215.614304,232.311920 216.001862,232.743835 
z"/>
<path fill="#329DC3" opacity="1.000000" stroke="none" 
	d="
M214.957214,231.743622 
	C214.709763,231.877441 214.446564,231.680923 214.116837,231.193176 
	C214.292023,231.146515 214.589081,231.316971 214.957214,231.743622 
z"/>
<path fill="#31A0C8" opacity="1.000000" stroke="none" 
	d="
M266.010742,108.719200 
	C265.786255,108.906677 265.505341,108.757919 265.090759,108.369461 
	C265.253174,108.282845 265.585602,108.367249 266.010742,108.719200 
z"/>
<path fill="#329DC3" opacity="1.000000" stroke="none" 
	d="
M213.963226,230.744568 
	C213.706223,230.880554 213.446289,230.682068 213.126953,230.190613 
	C213.308701,230.142380 213.606293,230.313202 213.963226,230.744568 
z"/>
<path fill="#329DC3" opacity="1.000000" stroke="none" 
	d="
M212.952469,229.720474 
	C212.714722,229.915878 212.442902,229.769958 212.052368,229.375519 
	C212.221329,229.286713 212.549561,229.370758 212.952469,229.720474 
z"/>
<path fill="#369FC5" opacity="1.000000" stroke="none" 
	d="
M297.997894,128.724213 
	C297.797119,128.788513 297.527802,128.588501 297.135620,128.165802 
	C297.318268,128.115372 297.623810,128.287628 297.997894,128.724213 
z"/>
<path fill="#369FC5" opacity="1.000000" stroke="none" 
	d="
M273.263947,113.009712 
	C273.000763,112.826591 273.002899,112.645912 273.016815,112.193962 
	C273.324371,112.104034 273.620148,112.285385 273.987549,112.725983 
	C273.882568,112.994209 273.705933,113.003181 273.263947,113.009712 
z"/>
<path fill="#27ADE4" opacity="1.000000" stroke="none" 
	d="
M101.685562,326.944305 
	C100.379951,333.074982 98.726784,339.140228 97.038757,345.594177 
	C91.563698,344.007477 87.552780,348.791534 85.963486,351.322571 
	C83.074509,355.923401 79.999954,356.302429 75.298645,355.432312 
	C75.700554,357.442078 75.994240,358.910675 76.449249,361.185974 
	C74.236160,360.091949 72.707497,359.336243 70.176361,358.084991 
	C71.149818,360.897217 71.843483,362.901123 72.537140,364.905060 
	C72.140816,365.278992 71.744492,365.652924 71.348167,366.026855 
	C68.842697,363.537872 66.231834,361.140503 63.920822,358.482452 
	C63.459606,357.951965 63.886951,356.259979 64.419212,355.435944 
	C64.649368,355.079590 66.207161,355.739868 67.124641,355.629303 
	C68.361160,355.480255 69.933365,355.413605 70.715660,354.649994 
	C74.893852,350.571564 78.759697,346.172272 82.952568,342.110016 
	C86.309151,338.858002 90.171638,336.112854 93.386032,332.739166 
	C94.295448,331.784698 93.716919,329.412506 93.362328,327.750549 
	C95.181366,321.744141 98.431480,326.298035 101.685562,326.944305 
z"/>
<path fill="#27ADE4" opacity="1.000000" stroke="none" 
	d="
M84.254982,151.218994 
	C88.143906,146.466629 92.272141,141.906937 96.678970,137.173370 
	C97.921593,139.240433 99.403893,141.412445 99.713425,143.740402 
	C100.069756,146.420410 100.401215,150.367432 98.902901,151.709915 
	C97.037506,153.381271 93.289185,153.312668 90.356071,153.303772 
	C88.400253,153.297836 86.448097,152.084579 84.254982,151.218994 
z"/>
<path fill="#27ADE4" opacity="1.000000" stroke="none" 
	d="
M273.255249,340.195618 
	C274.650391,338.236938 276.304535,336.547363 278.110138,334.572327 
	C281.290985,331.964905 284.320374,329.642914 287.617493,327.135132 
	C288.151520,330.320648 289.163635,333.841675 288.523407,337.031036 
	C287.319916,343.026245 281.299438,344.207550 273.255249,340.195618 
z"/>
<path fill="#27ADE4" opacity="1.000000" stroke="none" 
	d="
M56.318268,378.982330 
	C57.096859,373.820984 58.263874,368.661804 59.666008,363.221710 
	C60.932442,364.964020 62.240936,366.896118 62.941826,369.027954 
	C64.857552,374.854797 62.955189,377.744659 56.318268,378.982330 
z"/>
<path fill="#369FC5" opacity="1.000000" stroke="none" 
	d="
M343.976624,208.838867 
	C343.925415,208.944397 343.738159,208.959534 343.269531,208.991089 
	C343.218811,208.722687 343.502991,208.636337 343.976624,208.838867 
z"/>
<path fill="#000000" opacity="1.000000" stroke="none" 
	d="
M359.009155,292.449463 
	C357.631927,294.469788 356.404053,296.225983 354.868286,297.650085 
	C352.043427,300.269623 348.113922,299.549438 344.476929,295.955444 
	C341.617706,293.130005 341.357391,288.680725 344.096039,285.500366 
	C346.729279,282.442413 350.205414,280.697266 354.009308,282.669830 
	C357.514313,284.487366 360.251312,287.369904 359.009155,292.449463 
z"/>
<path fill="#000000" opacity="1.000000" stroke="none" 
	d="
M424.025879,287.514954 
	C424.024414,294.857788 421.766968,298.605835 417.106567,298.985291 
	C413.449615,299.283051 410.553162,298.296295 408.880859,294.383453 
	C406.817017,289.554596 408.249756,286.057220 412.185974,283.367981 
	C415.344818,281.209869 418.669952,281.325958 421.571014,284.080261 
	C422.501648,284.963806 423.206818,286.084839 424.025879,287.514954 
z"/>
<path fill="#000000" opacity="1.000000" stroke="none" 
	d="
M377.174866,295.715698 
	C374.537354,292.593719 373.852509,289.163879 376.363373,286.559784 
	C378.423553,284.423096 381.620605,282.475861 384.465393,282.234863 
	C387.917389,281.942444 390.539764,284.765442 391.695923,288.223938 
	C392.899445,291.823944 391.430725,294.931702 388.565399,296.763336 
	C386.089813,298.345856 383.077362,300.487213 379.907257,297.491760 
	C379.224762,296.846802 378.272461,296.487457 377.174866,295.715698 
z"/>
<path fill="#F2B821" opacity="1.000000" stroke="none" 
	d="
M316.702820,302.519348 
	C316.496643,303.206085 316.209625,303.646759 315.922607,304.087463 
	C315.692017,303.742554 315.461426,303.397614 315.230835,303.052704 
	C315.694550,302.792938 316.158264,302.533142 316.702820,302.519348 
z"/>
<path fill="#27ADE4" opacity="1.000000" stroke="none" 
	d="
M182.359131,247.055222 
	C181.319183,240.280106 184.562134,235.426193 189.653625,231.130035 
	C190.910553,232.861923 191.902786,234.765167 192.858917,236.686401 
	C194.335464,239.653381 196.126526,242.390793 192.947845,245.681595 
	C189.714355,249.029114 186.492050,249.237381 182.359131,247.055222 
z"/>
</svg>